<mxfile host="app.diagrams.net" agent="Mozilla/5.0 (Windows NT 10.0; Win64; x64) AppleWebKit/537.36 (KHTML, like Gecko) Chrome/137.0.0.0 Safari/537.36 Edg/137.0.0.0" version="27.1.6">
  <diagram name="Page-1" id="tlLxRwhl2RlylhqXjJS7">
    <mxGraphModel dx="592" dy="1433" grid="1" gridSize="10" guides="1" tooltips="1" connect="1" arrows="1" fold="1" page="1" pageScale="1" pageWidth="850" pageHeight="1100" math="0" shadow="0">
      <root>
        <mxCell id="0" />
        <mxCell id="1" parent="0" />
        <mxCell id="5vHnaTMSTYx_na7JPv1d-1" value="LCD Display" style="rounded=0;whiteSpace=wrap;html=1;fillColor=#dae8fc;strokeColor=#6c8ebf;fontSize=19;" parent="1" vertex="1">
          <mxGeometry x="860" y="670" width="370" height="150" as="geometry" />
        </mxCell>
        <mxCell id="5vHnaTMSTYx_na7JPv1d-2" value="Raspberry&lt;div&gt;Pi&lt;/div&gt;&lt;div&gt;Pico&lt;/div&gt;" style="rounded=0;whiteSpace=wrap;html=1;fillColor=#DEFE96;strokeColor=#36393d;" parent="1" vertex="1">
          <mxGeometry x="110" y="380" width="170" height="370" as="geometry" />
        </mxCell>
        <mxCell id="5vHnaTMSTYx_na7JPv1d-3" value="Motorcycle Battery" style="rounded=0;whiteSpace=wrap;html=1;fillColor=#ffe6cc;strokeColor=#d79b00;" parent="1" vertex="1">
          <mxGeometry x="160" y="-220" width="240" height="130" as="geometry" />
        </mxCell>
        <mxCell id="5vHnaTMSTYx_na7JPv1d-4" value="Switch" style="rounded=0;whiteSpace=wrap;html=1;fillColor=#f5f5f5;fontColor=#333333;strokeColor=#666666;" parent="1" vertex="1">
          <mxGeometry x="530" y="30" width="140" height="40" as="geometry" />
        </mxCell>
        <mxCell id="5vHnaTMSTYx_na7JPv1d-5" value="" style="rounded=0;whiteSpace=wrap;html=1;rotation=0;fillColor=#f5f5f5;fontColor=#333333;strokeColor=#666666;" parent="1" vertex="1">
          <mxGeometry x="585" y="-60" width="30" height="90" as="geometry" />
        </mxCell>
        <mxCell id="5vHnaTMSTYx_na7JPv1d-7" value="+" style="text;html=1;align=center;verticalAlign=middle;whiteSpace=wrap;rounded=0;fontSize=20;fillColor=#f8cecc;strokeColor=#b85450;" parent="1" vertex="1">
          <mxGeometry x="380" y="-120" width="20" height="30" as="geometry" />
        </mxCell>
        <mxCell id="5vHnaTMSTYx_na7JPv1d-8" value="-" style="text;html=1;align=center;verticalAlign=middle;whiteSpace=wrap;rounded=0;fontSize=20;fillColor=#647687;strokeColor=#314354;fontColor=#ffffff;" parent="1" vertex="1">
          <mxGeometry x="160" y="-120" width="20" height="30" as="geometry" />
        </mxCell>
        <mxCell id="5vHnaTMSTYx_na7JPv1d-10" value="" style="rounded=0;whiteSpace=wrap;html=1;fillColor=#eeeeee;strokeColor=#36393d;" parent="1" vertex="1">
          <mxGeometry x="530" y="70" width="20" height="40" as="geometry" />
        </mxCell>
        <mxCell id="5vHnaTMSTYx_na7JPv1d-11" value="" style="rounded=0;whiteSpace=wrap;html=1;fillColor=#eeeeee;strokeColor=#36393d;" parent="1" vertex="1">
          <mxGeometry x="650" y="70" width="20" height="40" as="geometry" />
        </mxCell>
        <mxCell id="5vHnaTMSTYx_na7JPv1d-13" value="" style="endArrow=none;html=1;rounded=0;fillColor=#ffcccc;strokeColor=#FC0000;" parent="1" edge="1">
          <mxGeometry width="50" height="50" relative="1" as="geometry">
            <mxPoint x="392" y="90" as="sourcePoint" />
            <mxPoint x="392" y="-90" as="targetPoint" />
          </mxGeometry>
        </mxCell>
        <mxCell id="5vHnaTMSTYx_na7JPv1d-14" value="" style="endArrow=none;html=1;rounded=0;entryX=0;entryY=0.5;entryDx=0;entryDy=0;fillColor=#ffcccc;strokeColor=#FF0000;" parent="1" target="5vHnaTMSTYx_na7JPv1d-10" edge="1">
          <mxGeometry width="50" height="50" relative="1" as="geometry">
            <mxPoint x="392" y="90" as="sourcePoint" />
            <mxPoint x="430" y="-30" as="targetPoint" />
          </mxGeometry>
        </mxCell>
        <mxCell id="5vHnaTMSTYx_na7JPv1d-16" value="" style="endArrow=none;html=1;rounded=0;fillColor=#ffcccc;strokeColor=#FF0000;" parent="1" edge="1">
          <mxGeometry width="50" height="50" relative="1" as="geometry">
            <mxPoint x="670" y="89.5" as="sourcePoint" />
            <mxPoint x="760" y="90" as="targetPoint" />
          </mxGeometry>
        </mxCell>
        <mxCell id="5vHnaTMSTYx_na7JPv1d-17" value="" style="endArrow=none;html=1;rounded=0;fillColor=#ffcccc;strokeColor=#FF0000;" parent="1" edge="1">
          <mxGeometry width="50" height="50" relative="1" as="geometry">
            <mxPoint x="760" y="140" as="sourcePoint" />
            <mxPoint x="760" y="90" as="targetPoint" />
          </mxGeometry>
        </mxCell>
        <mxCell id="5vHnaTMSTYx_na7JPv1d-18" value="" style="endArrow=none;html=1;rounded=0;fillColor=#ffcccc;strokeColor=#FF0000;" parent="1" edge="1">
          <mxGeometry width="50" height="50" relative="1" as="geometry">
            <mxPoint x="330" y="140" as="sourcePoint" />
            <mxPoint x="760" y="140" as="targetPoint" />
          </mxGeometry>
        </mxCell>
        <mxCell id="5vHnaTMSTYx_na7JPv1d-19" value="" style="endArrow=none;html=1;rounded=0;fillColor=#ffcccc;strokeColor=#000000;" parent="1" edge="1">
          <mxGeometry width="50" height="50" relative="1" as="geometry">
            <mxPoint x="170" y="200" as="sourcePoint" />
            <mxPoint x="169.58" y="-90" as="targetPoint" />
          </mxGeometry>
        </mxCell>
        <mxCell id="5vHnaTMSTYx_na7JPv1d-20" value="" style="endArrow=none;html=1;rounded=0;fillColor=#ffcccc;strokeColor=#000000;" parent="1" edge="1">
          <mxGeometry width="50" height="50" relative="1" as="geometry">
            <mxPoint x="140" y="230" as="sourcePoint" />
            <mxPoint x="169.58" y="200" as="targetPoint" />
          </mxGeometry>
        </mxCell>
        <mxCell id="5vHnaTMSTYx_na7JPv1d-21" value="" style="endArrow=none;html=1;rounded=0;fillColor=#ffcccc;strokeColor=#000000;" parent="1" edge="1">
          <mxGeometry width="50" height="50" relative="1" as="geometry">
            <mxPoint x="200" y="230" as="sourcePoint" />
            <mxPoint x="170" y="200" as="targetPoint" />
          </mxGeometry>
        </mxCell>
        <mxCell id="5vHnaTMSTYx_na7JPv1d-22" value="" style="endArrow=none;html=1;rounded=0;fillColor=#ffcccc;strokeColor=#FF0000;" parent="1" edge="1">
          <mxGeometry width="50" height="50" relative="1" as="geometry">
            <mxPoint x="330" y="140" as="sourcePoint" />
            <mxPoint x="330" y="200" as="targetPoint" />
          </mxGeometry>
        </mxCell>
        <mxCell id="5vHnaTMSTYx_na7JPv1d-23" value="" style="endArrow=none;html=1;rounded=0;fillColor=#ffcccc;strokeColor=#FF0000;" parent="1" edge="1">
          <mxGeometry width="50" height="50" relative="1" as="geometry">
            <mxPoint x="330" y="200" as="sourcePoint" />
            <mxPoint x="300" y="230" as="targetPoint" />
          </mxGeometry>
        </mxCell>
        <mxCell id="5vHnaTMSTYx_na7JPv1d-24" value="" style="endArrow=none;html=1;rounded=0;fillColor=#ffcccc;strokeColor=#FF0000;" parent="1" edge="1">
          <mxGeometry width="50" height="50" relative="1" as="geometry">
            <mxPoint x="330" y="200" as="sourcePoint" />
            <mxPoint x="360" y="230" as="targetPoint" />
          </mxGeometry>
        </mxCell>
        <mxCell id="5vHnaTMSTYx_na7JPv1d-25" value="" style="endArrow=none;html=1;rounded=0;dashed=1;fillColor=#cce5ff;strokeColor=#006DFF;" parent="1" edge="1">
          <mxGeometry width="50" height="50" relative="1" as="geometry">
            <mxPoint x="200" y="230" as="sourcePoint" />
            <mxPoint x="250" y="270" as="targetPoint" />
          </mxGeometry>
        </mxCell>
        <mxCell id="5vHnaTMSTYx_na7JPv1d-26" value="" style="endArrow=none;html=1;rounded=0;dashed=1;fillColor=#cce5ff;strokeColor=#006DFF;" parent="1" edge="1">
          <mxGeometry width="50" height="50" relative="1" as="geometry">
            <mxPoint x="300" y="230" as="sourcePoint" />
            <mxPoint x="250" y="270" as="targetPoint" />
          </mxGeometry>
        </mxCell>
        <mxCell id="5vHnaTMSTYx_na7JPv1d-27" value="" style="endArrow=none;html=1;rounded=0;fillColor=#cce5ff;strokeColor=#006DFF;" parent="1" edge="1">
          <mxGeometry width="50" height="50" relative="1" as="geometry">
            <mxPoint x="250" y="270" as="sourcePoint" />
            <mxPoint x="250" y="380" as="targetPoint" />
          </mxGeometry>
        </mxCell>
        <mxCell id="5vHnaTMSTYx_na7JPv1d-28" value="GP26&lt;div&gt;&lt;font style=&quot;font-size: 8px;&quot;&gt;(adc)&lt;/font&gt;&lt;/div&gt;" style="text;html=1;align=center;verticalAlign=middle;whiteSpace=wrap;rounded=0;" parent="1" vertex="1">
          <mxGeometry x="220" y="380" width="60" height="30" as="geometry" />
        </mxCell>
        <mxCell id="5vHnaTMSTYx_na7JPv1d-29" value="LM2596 set to 5V" style="rounded=0;whiteSpace=wrap;html=1;fillColor=#cce5ff;strokeColor=#36393d;" parent="1" vertex="1">
          <mxGeometry x="420" y="260" width="240" height="80" as="geometry" />
        </mxCell>
        <mxCell id="5vHnaTMSTYx_na7JPv1d-30" value="VIN+" style="text;html=1;align=left;verticalAlign=middle;whiteSpace=wrap;rounded=0;" parent="1" vertex="1">
          <mxGeometry x="420" y="260" width="60" height="30" as="geometry" />
        </mxCell>
        <mxCell id="5vHnaTMSTYx_na7JPv1d-31" value="VIN-&lt;span style=&quot;color: rgba(0, 0, 0, 0); font-family: monospace; font-size: 0px; text-wrap-mode: nowrap;&quot;&gt;%3CmxGraphModel%3E%3Croot%3E%3CmxCell%20id%3D%220%22%2F%3E%3CmxCell%20id%3D%221%22%20parent%3D%220%22%2F%3E%3CmxCell%20id%3D%222%22%20value%3D%22VIN%2B%22%20style%3D%22text%3Bhtml%3D1%3Balign%3Dleft%3BverticalAlign%3Dmiddle%3BwhiteSpace%3Dwrap%3Brounded%3D0%3B%22%20vertex%3D%221%22%20parent%3D%221%22%3E%3CmxGeometry%20x%3D%22520%22%20y%3D%22260%22%20width%3D%2260%22%20height%3D%2230%22%20as%3D%22geometry%22%2F%3E%3C%2FmxCell%3E%3C%2Froot%3E%3C%2FmxGraphModel%3E&lt;/span&gt;" style="text;html=1;align=left;verticalAlign=middle;whiteSpace=wrap;rounded=0;" parent="1" vertex="1">
          <mxGeometry x="420" y="310" width="60" height="30" as="geometry" />
        </mxCell>
        <mxCell id="5vHnaTMSTYx_na7JPv1d-32" value="VOUT+&lt;span style=&quot;color: rgba(0, 0, 0, 0); font-family: monospace; font-size: 0px; text-align: start; text-wrap-mode: nowrap;&quot;&gt;%3CmxGraphModel%3E%3Croot%3E%3CmxCell%20id%3D%220%22%2F%3E%3CmxCell%20id%3D%221%22%20parent%3D%220%22%2F%3E%3CmxCell%20id%3D%222%22%20value%3D%22VIN%2B%22%20style%3D%22text%3Bhtml%3D1%3Balign%3Dleft%3BverticalAlign%3Dmiddle%3BwhiteSpace%3Dwrap%3Brounded%3D0%3B%22%20vertex%3D%221%22%20parent%3D%221%22%3E%3CmxGeometry%20x%3D%22520%22%20y%3D%22260%22%20width%3D%2260%22%20height%3D%2230%22%20as%3D%22geometry%22%2F%3E%3C%2FmxCell%3E%3C%2Froot%3E%3C%2FmxGraphModel%3E&lt;/span&gt;" style="text;html=1;align=right;verticalAlign=middle;whiteSpace=wrap;rounded=0;" parent="1" vertex="1">
          <mxGeometry x="600" y="260" width="60" height="30" as="geometry" />
        </mxCell>
        <mxCell id="5vHnaTMSTYx_na7JPv1d-33" value="VOUT-" style="text;html=1;align=right;verticalAlign=middle;whiteSpace=wrap;rounded=0;" parent="1" vertex="1">
          <mxGeometry x="600" y="310" width="60" height="30" as="geometry" />
        </mxCell>
        <mxCell id="5vHnaTMSTYx_na7JPv1d-34" value="" style="endArrow=none;html=1;rounded=0;fillColor=#ffcccc;strokeColor=#FF0000;" parent="1" edge="1">
          <mxGeometry width="50" height="50" relative="1" as="geometry">
            <mxPoint x="360" y="230" as="sourcePoint" />
            <mxPoint x="360" y="275" as="targetPoint" />
          </mxGeometry>
        </mxCell>
        <mxCell id="5vHnaTMSTYx_na7JPv1d-35" value="" style="endArrow=none;html=1;rounded=0;fillColor=#ffcccc;strokeColor=#FF0000;exitX=0;exitY=0.5;exitDx=0;exitDy=0;" parent="1" source="5vHnaTMSTYx_na7JPv1d-30" edge="1">
          <mxGeometry width="50" height="50" relative="1" as="geometry">
            <mxPoint x="370" y="240" as="sourcePoint" />
            <mxPoint x="360" y="275" as="targetPoint" />
          </mxGeometry>
        </mxCell>
        <mxCell id="5vHnaTMSTYx_na7JPv1d-36" value="" style="endArrow=none;html=1;rounded=0;fillColor=#ffcccc;strokeColor=#000000;entryX=0;entryY=0.5;entryDx=0;entryDy=0;" parent="1" target="5vHnaTMSTYx_na7JPv1d-31" edge="1">
          <mxGeometry width="50" height="50" relative="1" as="geometry">
            <mxPoint x="140" y="325" as="sourcePoint" />
            <mxPoint x="369.58000000000004" y="320" as="targetPoint" />
          </mxGeometry>
        </mxCell>
        <mxCell id="5vHnaTMSTYx_na7JPv1d-37" value="" style="endArrow=none;html=1;rounded=0;fillColor=#ffcccc;strokeColor=#000000;" parent="1" edge="1">
          <mxGeometry width="50" height="50" relative="1" as="geometry">
            <mxPoint x="140" y="230" as="sourcePoint" />
            <mxPoint x="140" y="325" as="targetPoint" />
          </mxGeometry>
        </mxCell>
        <mxCell id="5vHnaTMSTYx_na7JPv1d-38" value="&lt;div&gt;&lt;u&gt;R1 Resistor&lt;/u&gt;&lt;/div&gt;22,000 ohms" style="text;html=1;align=left;verticalAlign=middle;whiteSpace=wrap;rounded=0;fontSize=9;" parent="1" vertex="1">
          <mxGeometry x="280" y="240" width="90" height="30" as="geometry" />
        </mxCell>
        <mxCell id="5vHnaTMSTYx_na7JPv1d-39" value="&lt;div&gt;&lt;u&gt;R2 Resistor&lt;/u&gt;&lt;/div&gt;5,600 ohms" style="text;html=1;align=right;verticalAlign=middle;whiteSpace=wrap;rounded=0;fontSize=9;" parent="1" vertex="1">
          <mxGeometry x="130" y="240" width="90" height="30" as="geometry" />
        </mxCell>
        <mxCell id="5vHnaTMSTYx_na7JPv1d-40" value="DHT22" style="rounded=0;whiteSpace=wrap;html=1;fillColor=#eeeeee;strokeColor=#36393d;" parent="1" vertex="1">
          <mxGeometry x="490" y="370" width="70" height="110" as="geometry" />
        </mxCell>
        <mxCell id="5vHnaTMSTYx_na7JPv1d-41" value="+" style="rounded=0;whiteSpace=wrap;html=1;fillColor=#eeeeee;strokeColor=#36393d;" parent="1" vertex="1">
          <mxGeometry x="490" y="480" width="10" height="30" as="geometry" />
        </mxCell>
        <mxCell id="5vHnaTMSTYx_na7JPv1d-42" value="-" style="rounded=0;whiteSpace=wrap;html=1;fillColor=#eeeeee;strokeColor=#36393d;" parent="1" vertex="1">
          <mxGeometry x="550" y="480" width="10" height="30" as="geometry" />
        </mxCell>
        <mxCell id="5vHnaTMSTYx_na7JPv1d-43" value="d" style="rounded=0;whiteSpace=wrap;html=1;fillColor=#eeeeee;strokeColor=#36393d;" parent="1" vertex="1">
          <mxGeometry x="520" y="480" width="10" height="30" as="geometry" />
        </mxCell>
        <mxCell id="G8Uwao9QSeHT6AdFdrDM-1" value="" style="endArrow=none;html=1;rounded=0;fillColor=#ffcccc;strokeColor=#FF0000;" parent="1" edge="1">
          <mxGeometry width="50" height="50" relative="1" as="geometry">
            <mxPoint x="760" y="275" as="sourcePoint" />
            <mxPoint x="660" y="274.66" as="targetPoint" />
          </mxGeometry>
        </mxCell>
        <mxCell id="G8Uwao9QSeHT6AdFdrDM-2" value="" style="endArrow=none;html=1;rounded=0;fillColor=#ffcccc;strokeColor=#000000;exitX=0;exitY=0.5;exitDx=0;exitDy=0;" parent="1" edge="1">
          <mxGeometry width="50" height="50" relative="1" as="geometry">
            <mxPoint x="700" y="324.65999999999997" as="sourcePoint" />
            <mxPoint x="660" y="324.65999999999997" as="targetPoint" />
          </mxGeometry>
        </mxCell>
        <mxCell id="G8Uwao9QSeHT6AdFdrDM-3" value="" style="endArrow=none;html=1;rounded=0;fillColor=#ffcccc;strokeColor=#FF0000;" parent="1" edge="1">
          <mxGeometry width="50" height="50" relative="1" as="geometry">
            <mxPoint x="760" y="550" as="sourcePoint" />
            <mxPoint x="760" y="274" as="targetPoint" />
          </mxGeometry>
        </mxCell>
        <mxCell id="G8Uwao9QSeHT6AdFdrDM-4" value="" style="endArrow=none;html=1;rounded=0;fillColor=#ffcccc;strokeColor=#000000;" parent="1" edge="1">
          <mxGeometry width="50" height="50" relative="1" as="geometry">
            <mxPoint x="700" y="520" as="sourcePoint" />
            <mxPoint x="700" y="324.66" as="targetPoint" />
          </mxGeometry>
        </mxCell>
        <mxCell id="G8Uwao9QSeHT6AdFdrDM-5" value="" style="endArrow=none;html=1;rounded=0;fillColor=#ffcccc;strokeColor=#FF0000;" parent="1" edge="1">
          <mxGeometry width="50" height="50" relative="1" as="geometry">
            <mxPoint x="740" y="570" as="sourcePoint" />
            <mxPoint x="760" y="550" as="targetPoint" />
          </mxGeometry>
        </mxCell>
        <mxCell id="G8Uwao9QSeHT6AdFdrDM-6" value="" style="endArrow=none;html=1;rounded=0;fillColor=#ffcccc;strokeColor=#FF0000;" parent="1" edge="1">
          <mxGeometry width="50" height="50" relative="1" as="geometry">
            <mxPoint x="780" y="570" as="sourcePoint" />
            <mxPoint x="760" y="550" as="targetPoint" />
          </mxGeometry>
        </mxCell>
        <mxCell id="G8Uwao9QSeHT6AdFdrDM-7" value="" style="endArrow=none;html=1;rounded=0;fillColor=#ffcccc;strokeColor=#FF0000;" parent="1" edge="1">
          <mxGeometry width="50" height="50" relative="1" as="geometry">
            <mxPoint x="760" y="590" as="sourcePoint" />
            <mxPoint x="760" y="550" as="targetPoint" />
          </mxGeometry>
        </mxCell>
        <mxCell id="G8Uwao9QSeHT6AdFdrDM-8" value="" style="endArrow=none;html=1;rounded=0;fillColor=#ffcccc;strokeColor=#FF0000;" parent="1" edge="1">
          <mxGeometry width="50" height="50" relative="1" as="geometry">
            <mxPoint x="780" y="700" as="sourcePoint" />
            <mxPoint x="780" y="570" as="targetPoint" />
          </mxGeometry>
        </mxCell>
        <mxCell id="G8Uwao9QSeHT6AdFdrDM-10" value="" style="endArrow=none;html=1;rounded=0;fillColor=#ffcccc;strokeColor=#FF0000;entryX=0;entryY=0.203;entryDx=0;entryDy=0;entryPerimeter=0;" parent="1" target="5vHnaTMSTYx_na7JPv1d-1" edge="1">
          <mxGeometry width="50" height="50" relative="1" as="geometry">
            <mxPoint x="780" y="700" as="sourcePoint" />
            <mxPoint x="790" y="710" as="targetPoint" />
          </mxGeometry>
        </mxCell>
        <mxCell id="G8Uwao9QSeHT6AdFdrDM-11" value="" style="endArrow=none;html=1;rounded=0;fillColor=#ffcccc;strokeColor=#FF0000;" parent="1" edge="1">
          <mxGeometry width="50" height="50" relative="1" as="geometry">
            <mxPoint x="495" y="570" as="sourcePoint" />
            <mxPoint x="740" y="570" as="targetPoint" />
          </mxGeometry>
        </mxCell>
        <mxCell id="G8Uwao9QSeHT6AdFdrDM-12" value="" style="endArrow=none;html=1;rounded=0;fillColor=#ffcccc;strokeColor=#FF0000;entryX=0.5;entryY=1;entryDx=0;entryDy=0;" parent="1" target="5vHnaTMSTYx_na7JPv1d-41" edge="1">
          <mxGeometry width="50" height="50" relative="1" as="geometry">
            <mxPoint x="495" y="570" as="sourcePoint" />
            <mxPoint x="500" y="520" as="targetPoint" />
          </mxGeometry>
        </mxCell>
        <mxCell id="G8Uwao9QSeHT6AdFdrDM-13" value="" style="endArrow=none;html=1;rounded=0;fillColor=#ffcccc;strokeColor=#FF0000;" parent="1" edge="1">
          <mxGeometry width="50" height="50" relative="1" as="geometry">
            <mxPoint x="280" y="590" as="sourcePoint" />
            <mxPoint x="760" y="590" as="targetPoint" />
          </mxGeometry>
        </mxCell>
        <mxCell id="G8Uwao9QSeHT6AdFdrDM-14" value="" style="endArrow=none;html=1;rounded=0;fillColor=#ffcccc;strokeColor=#000000;" parent="1" edge="1">
          <mxGeometry width="50" height="50" relative="1" as="geometry">
            <mxPoint x="680" y="540" as="sourcePoint" />
            <mxPoint x="700" y="520" as="targetPoint" />
          </mxGeometry>
        </mxCell>
        <mxCell id="G8Uwao9QSeHT6AdFdrDM-15" value="" style="endArrow=none;html=1;rounded=0;fillColor=#ffcccc;strokeColor=#000000;" parent="1" edge="1">
          <mxGeometry width="50" height="50" relative="1" as="geometry">
            <mxPoint x="720" y="540" as="sourcePoint" />
            <mxPoint x="700" y="520" as="targetPoint" />
          </mxGeometry>
        </mxCell>
        <mxCell id="G8Uwao9QSeHT6AdFdrDM-16" value="" style="endArrow=none;html=1;rounded=0;fillColor=#ffcccc;strokeColor=#000000;" parent="1" edge="1">
          <mxGeometry width="50" height="50" relative="1" as="geometry">
            <mxPoint x="700" y="560" as="sourcePoint" />
            <mxPoint x="700" y="520" as="targetPoint" />
          </mxGeometry>
        </mxCell>
        <mxCell id="G8Uwao9QSeHT6AdFdrDM-17" value="" style="endArrow=none;html=1;rounded=0;fillColor=#ffcccc;strokeColor=#000000;" parent="1" edge="1">
          <mxGeometry width="50" height="50" relative="1" as="geometry">
            <mxPoint x="720" y="725" as="sourcePoint" />
            <mxPoint x="720" y="540" as="targetPoint" />
          </mxGeometry>
        </mxCell>
        <mxCell id="G8Uwao9QSeHT6AdFdrDM-18" value="" style="endArrow=none;html=1;rounded=0;fillColor=#ffcccc;strokeColor=#000000;entryX=-0.014;entryY=0.263;entryDx=0;entryDy=0;entryPerimeter=0;" parent="1" edge="1">
          <mxGeometry width="50" height="50" relative="1" as="geometry">
            <mxPoint x="720" y="724" as="sourcePoint" />
            <mxPoint x="860" y="723.4499999999998" as="targetPoint" />
          </mxGeometry>
        </mxCell>
        <mxCell id="G8Uwao9QSeHT6AdFdrDM-19" value="" style="endArrow=none;html=1;rounded=0;fillColor=#ffcccc;strokeColor=#000000;" parent="1" edge="1">
          <mxGeometry width="50" height="50" relative="1" as="geometry">
            <mxPoint x="555" y="540" as="sourcePoint" />
            <mxPoint x="680" y="540" as="targetPoint" />
          </mxGeometry>
        </mxCell>
        <mxCell id="G8Uwao9QSeHT6AdFdrDM-20" value="" style="endArrow=none;html=1;rounded=0;fillColor=#ffcccc;strokeColor=#000000;exitX=0.5;exitY=1;exitDx=0;exitDy=0;" parent="1" source="5vHnaTMSTYx_na7JPv1d-42" edge="1">
          <mxGeometry width="50" height="50" relative="1" as="geometry">
            <mxPoint x="570" y="530" as="sourcePoint" />
            <mxPoint x="555" y="540" as="targetPoint" />
          </mxGeometry>
        </mxCell>
        <mxCell id="G8Uwao9QSeHT6AdFdrDM-21" value="" style="endArrow=none;html=1;rounded=0;fillColor=#ffcccc;strokeColor=#000000;" parent="1" edge="1">
          <mxGeometry width="50" height="50" relative="1" as="geometry">
            <mxPoint x="700" y="560" as="sourcePoint" />
            <mxPoint x="280" y="560" as="targetPoint" />
          </mxGeometry>
        </mxCell>
        <mxCell id="G8Uwao9QSeHT6AdFdrDM-22" value="" style="endArrow=none;html=1;rounded=0;fillColor=#dae8fc;strokeColor=#6c8ebf;exitX=0.5;exitY=1;exitDx=0;exitDy=0;" parent="1" edge="1">
          <mxGeometry width="50" height="50" relative="1" as="geometry">
            <mxPoint x="524.8" y="510" as="sourcePoint" />
            <mxPoint x="524.8" y="540" as="targetPoint" />
          </mxGeometry>
        </mxCell>
        <mxCell id="G8Uwao9QSeHT6AdFdrDM-23" value="" style="endArrow=none;html=1;rounded=0;fillColor=#dae8fc;strokeColor=#6c8ebf;" parent="1" edge="1">
          <mxGeometry width="50" height="50" relative="1" as="geometry">
            <mxPoint x="280" y="540" as="sourcePoint" />
            <mxPoint x="525" y="540" as="targetPoint" />
          </mxGeometry>
        </mxCell>
        <mxCell id="G8Uwao9QSeHT6AdFdrDM-24" value="" style="endArrow=none;html=1;rounded=0;entryX=0;entryY=0.5;entryDx=0;entryDy=0;fillColor=#ffe6cc;strokeColor=#d79b00;" parent="1" target="5vHnaTMSTYx_na7JPv1d-1" edge="1">
          <mxGeometry width="50" height="50" relative="1" as="geometry">
            <mxPoint x="520" y="745" as="sourcePoint" />
            <mxPoint x="800" y="750" as="targetPoint" />
          </mxGeometry>
        </mxCell>
        <mxCell id="G8Uwao9QSeHT6AdFdrDM-25" value="" style="endArrow=none;html=1;rounded=0;entryX=0;entryY=0.5;entryDx=0;entryDy=0;fillColor=#ffe6cc;strokeColor=#d79b00;" parent="1" edge="1">
          <mxGeometry width="50" height="50" relative="1" as="geometry">
            <mxPoint x="500" y="760" as="sourcePoint" />
            <mxPoint x="860" y="760" as="targetPoint" />
          </mxGeometry>
        </mxCell>
        <mxCell id="G8Uwao9QSeHT6AdFdrDM-26" value="" style="endArrow=none;html=1;rounded=0;fillColor=#ffe6cc;strokeColor=#d79b00;" parent="1" edge="1">
          <mxGeometry width="50" height="50" relative="1" as="geometry">
            <mxPoint x="500" y="760" as="sourcePoint" />
            <mxPoint x="500" y="720" as="targetPoint" />
          </mxGeometry>
        </mxCell>
        <mxCell id="G8Uwao9QSeHT6AdFdrDM-27" value="" style="endArrow=none;html=1;rounded=0;fillColor=#ffe6cc;strokeColor=#d79b00;" parent="1" edge="1">
          <mxGeometry width="50" height="50" relative="1" as="geometry">
            <mxPoint x="520" y="745" as="sourcePoint" />
            <mxPoint x="520" y="700" as="targetPoint" />
          </mxGeometry>
        </mxCell>
        <mxCell id="G8Uwao9QSeHT6AdFdrDM-28" value="" style="endArrow=none;html=1;rounded=0;fillColor=#ffe6cc;strokeColor=#d79b00;" parent="1" edge="1">
          <mxGeometry width="50" height="50" relative="1" as="geometry">
            <mxPoint x="280" y="700" as="sourcePoint" />
            <mxPoint x="520" y="700" as="targetPoint" />
          </mxGeometry>
        </mxCell>
        <mxCell id="G8Uwao9QSeHT6AdFdrDM-29" value="" style="endArrow=none;html=1;rounded=0;fillColor=#ffe6cc;strokeColor=#d79b00;" parent="1" edge="1">
          <mxGeometry width="50" height="50" relative="1" as="geometry">
            <mxPoint x="280" y="720" as="sourcePoint" />
            <mxPoint x="500" y="720" as="targetPoint" />
          </mxGeometry>
        </mxCell>
        <mxCell id="G8Uwao9QSeHT6AdFdrDM-30" value="VCC" style="text;html=1;align=left;verticalAlign=middle;whiteSpace=wrap;rounded=0;fontSize=9;" parent="1" vertex="1">
          <mxGeometry x="860" y="696" width="60" height="10" as="geometry" />
        </mxCell>
        <mxCell id="G8Uwao9QSeHT6AdFdrDM-31" value="GND&lt;span style=&quot;color: rgba(0, 0, 0, 0); font-family: monospace; font-size: 0px; text-wrap-mode: nowrap;&quot;&gt;%3CmxGraphModel%3E%3Croot%3E%3CmxCell%20id%3D%220%22%2F%3E%3CmxCell%20id%3D%221%22%20parent%3D%220%22%2F%3E%3CmxCell%20id%3D%222%22%20value%3D%22VCC%22%20style%3D%22text%3Bhtml%3D1%3Balign%3Dleft%3BverticalAlign%3Dmiddle%3BwhiteSpace%3Dwrap%3Brounded%3D0%3BfontSize%3D9%3B%22%20vertex%3D%221%22%20parent%3D%221%22%3E%3CmxGeometry%20x%3D%22860%22%20y%3D%22696%22%20width%3D%2260%22%20height%3D%2210%22%20as%3D%22geometry%22%2F%3E%3C%2FmxCell%3E%3C%2Froot%3E%3C%2FmxGraphModel%3E&lt;/span&gt;" style="text;html=1;align=left;verticalAlign=middle;whiteSpace=wrap;rounded=0;fontSize=9;" parent="1" vertex="1">
          <mxGeometry x="860" y="718" width="60" height="10" as="geometry" />
        </mxCell>
        <mxCell id="G8Uwao9QSeHT6AdFdrDM-32" value="SDA" style="text;html=1;align=left;verticalAlign=middle;whiteSpace=wrap;rounded=0;fontSize=9;" parent="1" vertex="1">
          <mxGeometry x="860" y="740" width="60" height="10" as="geometry" />
        </mxCell>
        <mxCell id="G8Uwao9QSeHT6AdFdrDM-33" value="SCL&amp;nbsp;" style="text;html=1;align=left;verticalAlign=middle;whiteSpace=wrap;rounded=0;fontSize=9;" parent="1" vertex="1">
          <mxGeometry x="860" y="755" width="60" height="10" as="geometry" />
        </mxCell>
        <mxCell id="G8Uwao9QSeHT6AdFdrDM-34" value="GP2" style="text;html=1;align=right;verticalAlign=middle;whiteSpace=wrap;rounded=0;fontSize=9;strokeColor=none;" parent="1" vertex="1">
          <mxGeometry x="250" y="530" width="30" height="20" as="geometry" />
        </mxCell>
        <mxCell id="G8Uwao9QSeHT6AdFdrDM-38" value="GND" style="text;html=1;align=right;verticalAlign=middle;whiteSpace=wrap;rounded=0;fontSize=9;strokeColor=none;" parent="1" vertex="1">
          <mxGeometry x="250" y="550" width="30" height="20" as="geometry" />
        </mxCell>
        <mxCell id="G8Uwao9QSeHT6AdFdrDM-39" value="VBUS" style="text;html=1;align=right;verticalAlign=middle;whiteSpace=wrap;rounded=0;fontSize=9;strokeColor=none;" parent="1" vertex="1">
          <mxGeometry x="250" y="580" width="30" height="20" as="geometry" />
        </mxCell>
        <mxCell id="G8Uwao9QSeHT6AdFdrDM-40" value="GP16" style="text;html=1;align=right;verticalAlign=middle;whiteSpace=wrap;rounded=0;fontSize=9;strokeColor=none;" parent="1" vertex="1">
          <mxGeometry x="250" y="691" width="30" height="20" as="geometry" />
        </mxCell>
        <mxCell id="G8Uwao9QSeHT6AdFdrDM-41" value="GP17" style="text;html=1;align=right;verticalAlign=middle;whiteSpace=wrap;rounded=0;fontSize=9;strokeColor=none;" parent="1" vertex="1">
          <mxGeometry x="250" y="711" width="30" height="20" as="geometry" />
        </mxCell>
      </root>
    </mxGraphModel>
  </diagram>
</mxfile>
